<svg width="127" height="30" viewBox="0 0 127 30" fill="none" xmlns="http://www.w3.org/2000/svg"
  class="w-auto max-md:h-[18px]">
  <path
    d="M18.2771 1.1894L15.2581 14.9781C15.2552 14.9914 15.2434 15 15.2296 15H1.01303C0.0649265 15 -0.362013 13.8468 0.370164 13.2607L16.6449 0.22778C17.383 -0.36311 18.4763 0.280197 18.2771 1.1894Z"
    fill="#8341ED"></path>
  <path
    d="M14.227 19.6985C14.276 19.4545 14.3016 19.201 14.3016 18.9428C14.3016 16.765 12.4839 15 10.2422 15H29.4957C30.4438 15 30.8707 16.1532 30.1386 16.7393L13.8638 29.7722C13.1257 30.3631 12.0324 29.7198 12.2316 28.8106L14.1926 19.8539C14.2054 19.8024 14.2162 19.7509 14.227 19.6985Z"
    fill="#2534DE"></path>
  <path fill-rule="evenodd" clip-rule="evenodd"
    d="M92.3151 9.83015H90.0391V12.2439H92.3151V21.2404H95.1043V12.2439H98.4068L99.1432 9.83015H95.1043V9.36935C95.1043 8.59403 95.3126 8.02352 95.7291 7.6578C96.1605 7.27746 96.6886 7.10192 97.3134 7.13118C97.9531 7.1458 98.5779 7.32866 99.1878 7.67975V5.2002C98.5184 4.80523 97.6258 4.61506 96.5101 4.62969C95.4093 4.62969 94.4349 5.00272 93.587 5.74878C92.7391 6.49483 92.3151 7.70169 92.3151 9.36935V9.83015ZM106.448 19.0902L103.489 9.83008H100.588L104.805 21.7012C104.761 22.2278 104.523 22.6813 104.091 23.0616C103.675 23.442 103.154 23.698 102.529 23.8296C101.904 23.9759 101.295 23.954 100.699 23.7638V26.2653C101.845 26.4993 102.931 26.4408 103.957 26.0897C104.984 25.7533 105.891 25.1096 106.68 24.1588C107.483 23.2225 108.123 22.0011 108.599 20.4943L112.258 9.83008H109.313L106.448 19.0902ZM88.557 9.83V21.2403H85.79V9.83H88.557ZM87.1958 8.33789C86.6751 8.33789 86.2363 8.16234 85.8793 7.81126C85.5223 7.44554 85.3438 7.02132 85.3438 6.53857C85.3438 6.0412 85.5223 5.61697 85.8793 5.26589C86.2512 4.9148 86.69 4.73926 87.1958 4.73926C87.6867 4.73926 88.1107 4.92211 88.4677 5.28783C88.8247 5.63892 89.0032 6.05583 89.0032 6.53857C89.0032 7.02132 88.8247 7.44554 88.4677 7.81126C88.1107 8.16234 87.6867 8.33789 87.1958 8.33789ZM81.271 10.3348C80.3636 9.79358 79.3669 9.52295 78.2809 9.52295C77.4925 9.52295 76.7338 9.67655 76.0049 9.98375C75.4847 10.2076 75.0118 10.4974 74.5863 10.8532L73.9743 9.83015H71.8545V26.024L74.6437 27.187V20.1447C75.0684 20.5408 75.537 20.8621 76.0495 21.1088C76.7636 21.4452 77.5074 21.6135 78.2809 21.6135C79.3669 21.6135 80.3636 21.3428 81.271 20.8016C82.1784 20.2603 82.8999 19.5289 83.4354 18.6073C83.971 17.6711 84.2387 16.6544 84.2387 15.5572C84.2387 14.4601 83.971 13.4507 83.4354 12.5291C82.8999 11.6075 82.1784 10.8761 81.271 10.3348ZM76.2727 12.4852C76.8082 12.1634 77.3884 12.0025 78.0131 12.0025C78.6677 12.0025 79.2702 12.1634 79.8206 12.4852C80.3859 12.7924 80.8247 13.2167 81.1371 13.7579C81.4644 14.2992 81.628 14.899 81.628 15.5572C81.628 16.2009 81.4644 16.7934 81.1371 17.3346C80.8247 17.8759 80.3859 18.3074 79.8206 18.6292C79.2702 18.9511 78.6677 19.112 78.0131 19.112C77.3884 19.112 76.8082 18.9511 76.2727 18.6292C75.7371 18.3074 75.3132 17.8759 75.0008 17.3346C74.6884 16.7934 74.5322 16.2009 74.5322 15.5572C74.5322 14.899 74.6884 14.2992 75.0008 13.7579C75.3132 13.2167 75.7371 12.7924 76.2727 12.4852ZM62.6951 21.4816C61.6092 21.4816 60.6125 21.211 59.7051 20.6697C58.7976 20.1285 58.0761 19.3971 57.5406 18.4755C57.0051 17.5539 56.7373 16.5445 56.7373 15.4473C56.7373 14.3502 57.0051 13.3408 57.5406 12.4192C58.0761 11.483 58.7976 10.7443 59.7051 10.203C60.6125 9.66174 61.6092 9.39111 62.6951 9.39111C63.6026 9.39111 64.4282 9.55203 65.172 9.87386C65.7755 10.135 66.3006 10.4876 66.7474 10.9317L67.024 9.82997H69.2331V21.2403H67.1356L66.6073 20.0371C66.2254 20.3857 65.7767 20.6844 65.2612 20.9331C64.4877 21.2988 63.6323 21.4816 62.6951 21.4816ZM62.9629 18.9582C63.6174 18.9582 64.2125 18.8046 64.748 18.4974C65.2984 18.1756 65.7298 17.744 66.0422 17.2028C66.3695 16.6615 66.5331 16.0617 66.5331 15.4035C66.5331 14.7598 66.3695 14.1673 66.0422 13.6261C65.7298 13.0848 65.2984 12.6533 64.748 12.3315C64.2125 12.0096 63.6174 11.8487 62.9629 11.8487C62.3084 11.8487 61.7059 12.0096 61.1555 12.3315C60.6199 12.6533 60.196 13.0848 59.8836 13.6261C59.5712 14.1673 59.415 14.7598 59.415 15.4035C59.415 16.0617 59.5712 16.6615 59.8836 17.2028C60.196 17.744 60.6199 18.1756 61.1555 18.4974C61.7059 18.8046 62.3084 18.9582 62.9629 18.9582ZM45.6457 17.2562L39.4089 5.44141H36.5527V21.2403H39.4089V10.9324L44.742 21.2403H46.5494L51.8824 10.9324V21.2403H54.7386V5.44141H51.8824L45.6457 17.2562Z"
    fill="currentColor"></path>
</svg>