<svg width="30" height="30" viewBox="0 0 32 32" fill="none" xmlns="http://www.w3.org/2000/svg"
  class="w-auto max-md:h-[18px]">
  <path
    d="M18.2771 1.1894L15.2581 14.9781C15.2552 14.9914 15.2434 15 15.2296 15H1.01303C0.0649265 15 -0.362013 13.8468 0.370164 13.2607L16.6449 0.22778C17.383 -0.36311 18.4763 0.280197 18.2771 1.1894Z"
    fill="#8341ED"></path>
  <path
    d="M14.227 19.6985C14.276 19.4545 14.3016 19.201 14.3016 18.9428C14.3016 16.765 12.4839 15 10.2422 15H29.4957C30.4438 15 30.8707 16.1532 30.1386 16.7393L13.8638 29.7722C13.1257 30.3631 12.0324 29.7198 12.2316 28.8106L14.1926 19.8539C14.2054 19.8024 14.2162 19.7509 14.227 19.6985Z"
    fill="#2534DE"></path>

</svg>